# xmcd
#
# Track frame offsets: 
#        150
#        4650
#        32665
#        50672
#        62245
#        77375
#        93800
#        108520
#        115855
#        130592
#        154550
#        168855
#        186205
#
# Disc length: 2558 seconds
#
# Revision: 0
# Processed by: cddbd v1.5.2PL0 Copyright (c) Steve Scherf et al.
# Submitted via: ExactAudioCopyFreeDBPlugin 1.0
#
DISCID=9409fc0d
DTITLE=Tom Newman - Hotel Splendide
DYEAR=1997
DGENRE=Blues, Classic Rock
TTITLE0=[Intro] Jules Blues
TTITLE1=Goin' Down Slow
TTITLE2=Don't Get Around Much Anymore
TTITLE3=That's Alright Mama
TTITLE4=Parchman Farm
TTITLE5=Who's Bin Talkin
TTITLE6=Cops 'N Robbers
TTITLE7=Zip-A-Dee-Doo-Da
TTITLE8=Nowhere To Go
TTITLE9=Love Is Strange
TTITLE10=Ma Song
TTITLE11=Down Home Girl
TTITLE12=Cornbread Peas 'N Black Molasses
EXTD=
EXTT0=
EXTT1=
EXTT2=
EXTT3=
EXTT4=
EXTT5=
EXTT6=
EXTT7=
EXTT8=
EXTT9=
EXTT10=
EXTT11=
EXTT12=
PLAYORDER=
